# xmcd CD database file
#
# Track frame offsets:
#	150
#	13192
#	29315
#	41918
#	53023
#	63383
#	79728
#	83030
#	103891
#	117020
#	119676
#	120333
#
# Disc length: 1764 seconds
#
# Revision: 0
# Processed by: cddbd v1.5.1PL0 Copyright (c) Steve Scherf et al.
# Submitted via: CDex 1.51
#
DISCID=9a06e20c
DTITLE=Jimi Hendrix (w. Lonnie Youngblood) - Two Great Experiences Together (Vinyl, US-Maple)
DYEAR=1971
DGENRE=Rhythmic Soul
TTITLE0=Wipe The Sweat 1 (1) orig.vinyl
TTITLE1=Wipe The Sweat 2 (1) orig.vinyl
TTITLE2=Wipe The Sweat 3 (1) orig.vinyl
TTITLE3=Goodbye Bessie Mae (3) orig.vinyl
TTITLE4=Two In One Goes (orig.vinyl)
TTITLE5=Soul Food (2) orig.vinyl
TTITLE6=Under The Table 1 (1) orig.vinyl
TTITLE7=Under The Table 1 (4) orig.vinyl
TTITLE8=Under The Table 2 (1) orig.vinyl
TTITLE9=Win Your Love (4) orig.vinyl
TTITLE10=Win Your Love (5) orig.vinyl
TTITLE11=Win Your Love (3) orig.vinyl
EXTD=YEAR: 1971
EXTT0=
EXTT1=
EXTT2=
EXTT3=
EXTT4=
EXTT5=
EXTT6=
EXTT7=
EXTT8=
EXTT9=
EXTT10=
EXTT11=
PLAYORDER=
